<?xml version="1.0" standalone="no"?>
<!DOCTYPE svg PUBLIC "-//W3C//DTD SVG 20010904//EN"
 "http://www.w3.org/TR/2001/REC-SVG-20010904/DTD/svg10.dtd">
<svg version="1.0" xmlns="http://www.w3.org/2000/svg"
 width="1395.000000pt" height="1395.000000pt" viewBox="0 0 1395.000000 1395.000000"
 preserveAspectRatio="xMidYMid meet">
<metadata>
Created by potrace 1.14, written by Peter Selinger 2001-2017
</metadata>
<g transform="translate(0.000000,1395.000000) scale(0.100000,-0.100000)"
fill="#000000" stroke="none">
<path d="M6658 13945 c-1 -1 -57 -6 -123 -10 -66 -4 -133 -8 -150 -10 -62 -5
-181 -17 -195 -20 -8 -2 -51 -6 -95 -11 -44 -4 -82 -8 -85 -9 -8 -2 -93 -16
-125 -21 -99 -16 -213 -36 -275 -49 -56 -12 -76 -16 -100 -19 -19 -3 -247 -59
-370 -92 -8 -2 -31 -8 -50 -13 -19 -5 -87 -25 -150 -45 -63 -20 -123 -38 -132
-41 -9 -2 -62 -20 -116 -39 -55 -20 -103 -36 -107 -36 -4 0 -21 -6 -38 -14
-18 -8 -86 -36 -152 -62 -216 -84 -494 -213 -720 -334 -38 -21 -86 -46 -105
-56 -19 -11 -37 -22 -40 -25 -3 -3 -9 -8 -15 -10 -9 -4 -106 -59 -160 -92 -11
-7 -46 -29 -77 -49 -32 -21 -60 -38 -62 -38 -5 0 -187 -121 -196 -130 -3 -3
-34 -25 -70 -49 -36 -25 -66 -48 -68 -53 -2 -4 -8 -8 -13 -8 -10 0 -24 -10
-60 -42 -10 -10 -23 -18 -29 -18 -5 0 -14 -8 -19 -17 -6 -10 -11 -14 -11 -10
0 4 -7 2 -15 -5 -8 -7 -28 -24 -44 -38 -15 -14 -41 -35 -57 -47 -16 -12 -39
-30 -51 -40 -12 -10 -35 -28 -50 -40 -15 -12 -37 -30 -48 -40 -11 -10 -51 -45
-90 -78 -38 -33 -80 -70 -92 -82 -12 -13 -27 -23 -33 -23 -6 0 -8 -4 -5 -10 3
-5 1 -10 -4 -10 -6 0 -61 -49 -123 -110 -61 -60 -115 -110 -120 -110 -4 0 -8
-4 -8 -8 0 -4 -41 -50 -91 -102 -50 -52 -110 -117 -133 -144 -22 -26 -54 -63
-71 -81 -16 -19 -43 -50 -60 -70 -16 -20 -39 -46 -50 -58 -11 -12 -34 -40 -50
-62 -17 -21 -37 -47 -45 -56 -22 -24 -46 -56 -93 -121 -22 -32 -45 -58 -49
-58 -4 0 -8 -4 -8 -10 0 -5 -21 -38 -47 -73 -27 -36 -54 -73 -61 -83 -6 -11
-39 -59 -72 -107 -33 -48 -60 -90 -60 -93 0 -3 -11 -20 -24 -37 -13 -18 -33
-48 -44 -67 -10 -19 -41 -71 -68 -115 -27 -44 -56 -93 -64 -110 -8 -16 -21
-36 -27 -43 -7 -7 -13 -18 -13 -23 0 -5 -11 -26 -23 -47 -50 -79 -213 -412
-287 -587 -23 -55 -50 -118 -60 -140 -75 -173 -280 -791 -273 -825 0 -3 -4
-16 -9 -30 -6 -14 -11 -34 -13 -45 -3 -19 -9 -44 -20 -82 -7 -28 -35 -146 -39
-168 -6 -30 -15 -77 -21 -105 -4 -14 -8 -34 -10 -45 -9 -55 -17 -100 -21 -119
-2 -11 -7 -41 -10 -66 -3 -25 -7 -47 -9 -50 -2 -3 -6 -29 -10 -59 -4 -30 -8
-61 -10 -70 -1 -9 -6 -45 -10 -81 -4 -36 -9 -72 -10 -81 -2 -9 -6 -52 -10 -95
-4 -43 -8 -95 -11 -114 -26 -228 -26 -935 1 -1170 2 -19 6 -66 10 -105 3 -38
8 -86 10 -105 9 -73 16 -126 21 -155 5 -34 11 -78 20 -150 3 -27 8 -53 10 -56
2 -4 6 -28 9 -55 3 -27 10 -62 15 -79 5 -16 12 -48 15 -70 3 -22 19 -99 36
-171 16 -73 32 -140 34 -150 2 -11 18 -71 35 -134 18 -63 33 -119 34 -125 2
-5 6 -17 9 -25 3 -8 20 -62 37 -120 17 -58 35 -114 39 -125 5 -11 14 -38 20
-60 7 -22 16 -49 20 -60 5 -11 15 -38 23 -60 28 -74 120 -310 133 -340 8 -16
32 -70 54 -118 23 -49 41 -91 41 -93 0 -14 194 -390 249 -482 17 -29 31 -54
31 -56 0 -2 18 -33 40 -67 21 -35 49 -83 61 -106 13 -24 26 -43 31 -43 4 0 8
-5 8 -11 0 -5 32 -57 70 -115 39 -57 70 -109 70 -114 0 -5 9 -15 20 -22 11 -7
20 -17 20 -21 0 -5 14 -26 30 -47 17 -21 30 -42 30 -48 0 -6 3 -12 8 -14 9 -4
72 -85 72 -92 0 -6 14 -23 62 -79 15 -18 28 -35 28 -38 0 -4 12 -21 28 -38 15
-17 37 -43 49 -58 56 -73 82 -104 146 -174 17 -20 59 -67 92 -105 33 -37 99
-108 148 -157 48 -50 87 -95 87 -100 0 -6 2 -8 5 -6 2 3 51 -39 107 -94 127
-122 154 -146 248 -227 41 -36 77 -67 80 -71 4 -4 170 -138 255 -205 96 -75
250 -186 275 -198 11 -5 20 -13 20 -18 0 -4 5 -8 11 -8 6 0 17 -6 24 -12 30
-27 70 -54 100 -67 12 -5 26 -16 33 -24 7 -8 24 -18 37 -21 14 -4 25 -11 25
-16 0 -5 17 -17 38 -27 20 -9 39 -20 42 -24 10 -14 340 -198 495 -276 145 -73
441 -210 495 -228 3 -1 19 -7 35 -14 17 -7 46 -19 65 -26 19 -7 49 -19 65 -26
17 -6 35 -13 40 -15 6 -2 82 -29 170 -59 88 -31 171 -59 184 -61 14 -3 28 -7
33 -10 8 -5 193 -61 228 -68 8 -2 35 -10 60 -17 25 -7 47 -13 50 -14 5 -1 112
-26 135 -31 6 -1 41 -9 80 -18 158 -38 462 -91 635 -111 25 -3 59 -7 75 -9 17
-2 62 -7 100 -11 39 -3 84 -8 100 -10 212 -26 923 -26 1195 0 19 2 65 6 101 9
36 4 76 8 90 11 13 2 49 6 80 10 31 3 67 8 79 10 12 2 48 7 79 11 31 3 65 8
76 10 11 3 36 7 55 10 66 10 80 13 98 18 9 3 34 7 54 10 21 3 59 11 85 17 27
6 58 13 71 15 53 10 73 14 192 44 69 17 134 33 144 35 10 3 60 16 110 31 50
14 96 27 101 29 6 1 17 5 25 8 8 3 74 24 145 47 72 22 139 45 150 50 11 4 54
21 95 35 41 15 89 33 105 40 17 7 77 32 135 55 156 64 175 72 432 198 131 64
238 119 238 124 0 4 6 8 13 8 6 0 54 25 106 55 51 30 95 55 98 55 2 0 9 5 16
10 7 6 50 33 95 60 114 68 356 230 360 241 2 5 10 9 18 9 8 0 14 4 14 9 0 5 8
12 18 15 10 4 27 14 38 24 11 9 55 44 99 77 44 33 84 65 88 72 4 7 12 13 18
13 5 0 40 25 77 56 139 117 165 139 178 152 7 6 17 12 23 12 6 0 11 7 11 15 0
8 4 15 8 15 34 0 538 509 707 715 28 33 52 62 55 65 46 44 380 492 380 510 0
4 3 10 8 12 15 6 172 252 172 269 0 5 4 9 8 9 5 0 14 10 20 23 6 12 25 45 41
72 17 28 35 59 41 70 6 11 29 52 50 90 22 39 70 131 107 205 38 74 70 137 73
140 3 3 25 50 50 105 24 55 47 102 50 105 3 3 6 10 7 16 1 7 13 36 26 65 14
30 48 115 77 189 29 74 58 149 65 165 11 25 63 178 72 210 1 6 25 83 53 172
64 208 134 481 155 601 3 18 12 65 21 105 8 39 17 88 19 107 3 19 7 46 10 60
3 14 7 39 10 55 2 17 11 82 19 145 28 204 36 273 53 520 16 213 9 780 -12
1015 -2 17 -6 64 -9 105 -4 41 -9 86 -11 100 -2 14 -7 48 -10 75 -11 105 -57
388 -75 470 -5 22 -11 55 -15 72 -3 18 -12 63 -21 100 -9 38 -17 76 -20 86 -2
10 -5 26 -8 35 -3 9 -7 28 -10 42 -3 14 -10 43 -16 65 -6 22 -12 47 -14 55 -5
20 -64 226 -78 270 -11 36 -17 57 -18 65 -1 3 -8 21 -16 42 -9 20 -17 44 -19
52 -4 18 -52 156 -65 186 -5 11 -18 46 -30 79 -28 80 -141 346 -187 442 -20
44 -37 81 -38 84 -2 9 -120 245 -125 250 -3 3 -14 23 -26 45 -11 22 -33 63
-49 90 -16 28 -38 68 -50 90 -22 40 -79 132 -169 275 -26 41 -53 84 -59 95 -7
11 -15 22 -18 25 -3 3 -26 37 -52 76 -26 39 -56 80 -67 92 -11 12 -20 24 -20
27 0 13 -213 285 -223 285 -6 0 -8 3 -4 6 5 5 -1 14 -46 67 -11 12 -33 39 -50
60 -18 21 -45 54 -62 72 -16 18 -57 64 -90 101 -78 89 -409 420 -503 504 -41
36 -84 74 -96 85 -13 11 -45 38 -71 60 -26 22 -55 47 -64 55 -23 21 -143 116
-216 170 -33 25 -66 51 -75 57 -8 7 -69 51 -135 97 -66 47 -125 90 -132 96 -7
5 -15 10 -18 10 -3 0 -46 27 -95 60 -49 33 -92 60 -95 60 -4 0 -26 14 -50 30
-24 17 -48 30 -54 30 -6 0 -11 5 -11 10 0 6 -4 10 -9 10 -5 0 -44 20 -86 45
-42 25 -134 76 -203 112 -70 36 -134 70 -142 74 -22 13 -234 115 -240 117 -9
2 -84 33 -135 57 -44 20 -79 34 -95 40 -7 2 -62 24 -80 32 -8 3 -17 7 -20 8
-6 2 -59 23 -80 32 -8 3 -19 7 -25 9 -5 1 -59 21 -120 42 -60 22 -164 57 -230
77 -66 21 -127 40 -135 43 -17 6 -27 9 -55 16 -215 57 -226 59 -273 70 -9 2
-35 9 -57 14 -40 11 -87 22 -115 26 -8 1 -31 6 -50 11 -19 4 -44 9 -55 11 -11
1 -20 3 -20 4 0 1 -11 3 -25 6 -14 2 -41 7 -60 10 -19 4 -39 8 -45 8 -22 3
-121 19 -140 22 -41 8 -71 13 -125 19 -30 3 -62 8 -70 10 -8 2 -46 6 -83 10
-37 3 -76 8 -85 10 -9 1 -62 6 -117 10 -55 4 -118 9 -140 12 -47 5 -762 13
-767 8z"/>
</g>
</svg>
